{"asset":{"generator":"Khronos glTF Spline I/O v0.0.1","version":"2.0"},"scenes":[{"nodes":[0]}],"nodes":[{"name":"","children":[1,2,3,4,5,6,7],"matrix":[0.01,0,0,0,0,0.01,0,0,0,0,0.01,0,0,0,0,1]},{"name":"","camera":0,"translation":[533.351336421816,485.184573849716,692.9157822097403],"rotation":[-0.23722823398208612,0.31187316956877076,0.08072722010736154,0.9164829551271573]},{"name":"Floor","matrix":[1,0,0,0,0,2.220446049250313e-16,-1,0,0,1,2.220446049250313e-16,0,0,0,0,1],"mesh":0},{"name":"Key Light","translation":[138.7259746402596,169.47123143055796,-75.63892754834524],"rotation":[-0.7669515606928962,0.27387705057056333,-0.19516266453692907,0.5465237406484241],"extensions":{"KHR_lights_punctual":{"light":0}}},{"name":"Light Main","translation":[-129.80294940594837,169.47123143055796,157.36779346485127],"rotation":[-0.4270333339583541,-0.14474866669279698,0.28653677002503414,0.845332499435986],"extensions":{"KHR_lights_punctual":{"light":1}}},{"name":"Camera","camera":1,"translation":[577.350269189626,577.3502691896258,577.3502691896258],"rotation":[-0.27984814233312133,0.3647051996310008,0.11591689595929511,0.8804762392171493]},{"name":"Plane","matrix":[1,0,0,0,0,2.220446049250313e-16,-1,0,0,1,2.220446049250313e-16,0,9.371779414164848,1.0000000000000462,-36.41814543354201,1],"mesh":1},{"name":"Text 3","matrix":[1.1782215184026803,0,0,0,0,1.2748689478175754,0,0,0,0,1.178221518402832,0,142.3402425671738,112.65610048478081,160.5692647871505,1],"mesh":2,"children":[8]},{"name":"Text 2","matrix":[1,0,0,0,0,1,0,0,0,0,1,0,0,0,19.89657747847376,1],"mesh":3}],"cameras":[{"type":"orthographic","orthographic":{"xmag":1280,"ymag":552,"zfar":100000,"znear":-100000}},{"type":"orthographic","orthographic":{"xmag":1600,"ymag":732,"zfar":100000,"znear":-100000}}],"meshes":[{"primitives":[{"attributes":{"POSITION":1,"NORMAL":2,"TEXCOORD_0":3},"indices":0}]},{"primitives":[{"attributes":{"POSITION":5,"NORMAL":6,"TEXCOORD_0":7},"indices":4}]},{"primitives":[{"attributes":{"POSITION":9,"NORMAL":10,"TEXCOORD_0":11},"indices":8}]},{"primitives":[{"attributes":{"POSITION":13,"NORMAL":14,"TEXCOORD_0":15},"indices":12}]}],"buffers":[{"uri":"data:application/octet-stream;base64,","byteLength":152},{"uri":"data:application/octet-stream;base64,","byteLength":3360},{"uri":"data:application/octet-stream;base64,","byteLength":458888},{"uri":"data:application/octet-stream;base64,","byteLength":458888}],"bufferViews":[{"buffer":0,"byteOffset":0,"byteLength":24,"target":34963},{"buffer":0,"byteOffset":24,"byteLength":48,"target":34962},{"buffer":0,"byteOffset":72,"byteLength":48,"target":34962},{"buffer":0,"byteOffset":120,"byteLength":32,"target":34962},{"buffer":1,"byteOffset":0,"byteLength":768,"target":34963},{"buffer":1,"byteOffset":768,"byteLength":972,"target":34962},{"buffer":1,"byteOffset":1740,"byteLength":972,"target":34962},{"buffer":1,"byteOffset":2712,"byteLength":648,"target":34962},{"buffer":2,"byteOffset":0,"byteLength":82248,"target":34963},{"buffer":2,"byteOffset":82248,"byteLength":141240,"target":34962},{"buffer":2,"byteOffset":223488,"byteLength":141240,"target":34962},{"buffer":2,"byteOffset":364728,"byteLength":94160,"target":34962},{"buffer":3,"byteOffset":0,"byteLength":82248,"target":34963},{"buffer":3,"byteOffset":82248,"byteLength":141240,"target":34962},{"buffer":3,"byteOffset":223488,"byteLength":141240,"target":34962},{"buffer":3,"byteOffset":364728,"byteLength":94160,"target":34962}],"accessors":[{"bufferView":0,"byteOffset":0,"componentType":5125,"count":6,"type":"SCALAR","min":[0],"max":[3]},{"bufferView":1,"byteOffset":0,"componentType":5126,"count":4,"type":"VEC3","min":[-2000,-2000,0],"max":[2000,2000,0]},{"bufferView":2,"byteOffset":0,"componentType":5126,"count":4,"type":"VEC3","min":[0,0,1],"max":[0,0,1]},{"bufferView":3,"byteOffset":0,"componentType":5126,"count":4,"type":"VEC2","min":[0,0],"max":[1,1]},{"bufferView":4,"byteOffset":0,"componentType":5123,"count":384,"type":"SCALAR","min":[0],"max":[80]},{"bufferView":5,"byteOffset":0,"componentType":5126,"count":81,"type":"VEC3","min":[-799.9952392578125,-717.7702026367188,0],"max":[799.9952392578125,717.7702026367188,0]},{"bufferView":6,"byteOffset":0,"componentType":5126,"count":81,"type":"VEC3","min":[0,0,1],"max":[0,0,1]},{"bufferView":7,"byteOffset":0,"componentType":5126,"count":81,"type":"VEC2","min":[0,0],"max":[1,1]},{"bufferView":8,"byteOffset":0,"componentType":5123,"count":41124,"type":"SCALAR","min":[0],"max":[11769]},{"bufferView":9,"byteOffset":0,"componentType":5126,"count":11770,"type":"VEC3","min":[-213.10000610351562,-73.25397491455078,0],"max":[219.95001220703125,241.04603576660156,27]},{"bufferView":10,"byteOffset":0,"componentType":5126,"count":11770,"type":"VEC3","min":[-1,-1,-1],"max":[1,1,1]},{"bufferView":11,"byteOffset":0,"componentType":5126,"count":11770,"type":"VEC2","min":[0,0],"max":[1,1]},{"bufferView":12,"byteOffset":0,"componentType":5123,"count":41124,"type":"SCALAR","min":[0],"max":[11769]},{"bufferView":13,"byteOffset":0,"componentType":5126,"count":11770,"type":"VEC3","min":[-213.10000610351562,-73.25397491455078,0],"max":[219.95001220703125,241.04603576660156,27]},{"bufferView":14,"byteOffset":0,"componentType":5126,"count":11770,"type":"VEC3","min":[-1,-1,-1],"max":[1,1,1]},{"bufferView":15,"byteOffset":0,"componentType":5126,"count":11770,"type":"VEC2","min":[0,0],"max":[1,1]}],"extensions":{"KHR_lights_punctual":{"lights":[{"type":"directional","name":"Key Light","color":[1,1,1],"intensity":0.2},{"type":"directional","name":"Light Main","color":[1,1,1],"intensity":1}]}},"extensionsUsed":["KHR_lights_punctual"]}